<?xml version="1.0" standalone="no"?><!DOCTYPE svg PUBLIC "-//W3C//DTD SVG 1.1//EN" "http://www.w3.org/Graphics/SVG/1.1/DTD/svg11.dtd"><svg t="1782800368807" class="icon" viewBox="0 0 1024 1024" version="1.1" xmlns="http://www.w3.org/2000/svg" p-id="1946" xmlns:xlink="http://www.w3.org/1999/xlink" width="256" height="256"><path d="M832 42.666667v64a21.333333 21.333333 0 0 1-21.333333 21.333333h-42.666667V85.333333H256v42.666667h-42.666667a21.333333 21.333333 0 0 1-21.333333-21.333333V42.666667a21.333333 21.333333 0 0 1 21.333333-21.333334h597.333334a21.333333 21.333333 0 0 1 21.333333 21.333334z" fill="#D6E0FB" p-id="1947"></path><path d="M768 256v85.333333L512 554.666667 256 341.333333v-85.333333l256 213.333333z" fill="#7655FF" p-id="1948"></path><path d="M768 170.666667v85.333333L512 469.333333 256 256V170.666667l256 213.333333z" fill="#A166F5" p-id="1949"></path><path d="M768 128v42.666667L512 384 256 170.666667V85.333333l256 213.333334L768 85.333333z" fill="#A166F5" p-id="1950"></path><path d="M768 85.333333L512 298.666667 256 85.333333z" fill="#A166F5" p-id="1951"></path><path d="M512 618.666667a192 192 0 1 1-192 192 192 192 0 0 1 192-192z m128 192a128 128 0 1 0-128 128 128 128 0 0 0 128-128z" fill="#FFDC56" p-id="1952"></path><path d="M512 810.666667m-128 0a128 128 0 1 0 256 0 128 128 0 1 0-256 0Z" fill="#FFA233" p-id="1953"></path><path d="M512 554.666667l-21.333333-17.770667v83.029333a181.333333 181.333333 0 0 1 42.666666 0v-83.029333z" fill="#FFA233" p-id="1954"></path><path d="M768 42.666667H234.666667a21.333333 21.333333 0 0 0-21.333334 21.333333v64h42.666667V85.333333h512v42.666667h21.333333V64a21.333333 21.333333 0 0 0-21.333333-21.333333z" fill="#AEB4E4" p-id="1955"></path><path d="M768 64H256a21.333333 21.333333 0 0 0-21.333333 21.333333v256a21.333333 21.333333 0 0 0 7.68 16.384l256 213.333334a21.333333 21.333333 0 0 0 27.306666 0l256-213.333334A21.333333 21.333333 0 0 0 789.333333 341.333333V85.333333a21.333333 21.333333 0 0 0-21.333333-21.333333z m0 64v213.333333L512 554.666667 256 341.333333V85.333333h512z" fill="#FFA233" p-id="1956"></path><path d="M512 640a170.666667 170.666667 0 1 0 170.666667 170.666667 170.666667 170.666667 0 0 0-170.666667-170.666667z m0 320a149.333333 149.333333 0 1 1 149.333333-149.333333 149.333333 149.333333 0 0 1-149.333333 149.333333z" fill="#FFCA46" p-id="1957"></path><path d="M512 682.666667a128 128 0 1 0 128 128 128 128 0 0 0-128-128z m0 234.666666a106.666667 106.666667 0 1 1 106.666667-106.666666 106.666667 106.666667 0 0 1-106.666667 106.666666z" fill="#FFF86A" p-id="1958"></path><path d="M533.333333 874.666667h-42.666666v-76.501334l-6.250667 6.250667-30.165333-30.165333 42.666666-42.666667A21.333333 21.333333 0 0 1 533.333333 746.666667z" fill="#FFFFFF" p-id="1959"></path><path d="M512 441.6l-242.346667-201.984a20.992 20.992 0 0 0-13.653333-4.672V283.733333l242.346667 201.941334a21.333333 21.333333 0 0 0 27.306666 0L768 283.733333v-48.789333a20.821333 20.821333 0 0 0-13.653333 4.672z" fill="#FFA233" p-id="1960"></path><path d="M512 405.333333a21.184 21.184 0 0 0 13.653333-4.949333L768 198.4V149.610667a20.949333 20.949333 0 0 0-13.653333 4.672L512 356.266667 269.653333 154.282667a20.970667 20.970667 0 0 0-13.653333-4.650667V198.4l242.346667 201.941333A21.184 21.184 0 0 0 512 405.333333z" fill="#FFCA46" p-id="1961"></path><path d="M512 320a21.184 21.184 0 0 0 13.653333-4.949333L768 113.066667V85.333333h-33.322667L512 270.933333 289.322667 85.333333H256v27.733334l242.346667 201.941333A21.184 21.184 0 0 0 512 320z" fill="#FFF86A" p-id="1962"></path><path d="M377.216 117.333333c0 5.888 2.986667 10.666667 6.656 10.666667h200c3.690667 0 6.677333-4.778667 6.677333-10.666667s-2.986667-10.666667-6.677333-10.666666h-200c-3.669333 0-6.656 4.778667-6.656 10.666666zM611.882667 117.333333a10.666667 10.666667 0 0 0 10.666666 10.666667h21.333334a10.666667 10.666667 0 1 0 0-21.333333h-21.333334a10.666667 10.666667 0 0 0-10.666666 10.666666z" fill="#C29AFF" p-id="1963"></path><path d="M565.653554 765.246891a48.768 35.029333 45 1 0 49.538959-49.538958 48.768 35.029333 45 1 0-49.538959 49.538958Z" fill="#EAF6FF" p-id="1964"></path><path d="M556.580621 817.190988a24.490667 17.6 45 1 0 24.890158-24.890159 24.490667 17.6 45 1 0-24.890158 24.890159Z" fill="#EAF6FF" p-id="1965"></path><path d="M364.790738 134.348922a24.490667 17.6 45 1 0 24.890159-24.890158 24.490667 17.6 45 1 0-24.890159 24.890158Z" fill="#EAF6FF" p-id="1966"></path><path d="M408.214729 160.176592a12.245333 8.810667 45 1 0 12.460164-12.460164 12.245333 8.810667 45 1 0-12.460164 12.460164Z" fill="#EAF6FF" p-id="1967"></path></svg>