<?xml version="1.0" standalone="no"?><!DOCTYPE svg PUBLIC "-//W3C//DTD SVG 1.1//EN" "http://www.w3.org/Graphics/SVG/1.1/DTD/svg11.dtd"><svg t="1782800450739" class="icon" viewBox="0 0 1024 1024" version="1.1" xmlns="http://www.w3.org/2000/svg" p-id="2470" xmlns:xlink="http://www.w3.org/1999/xlink" width="256" height="256"><path d="M832 42.666667v64a21.333333 21.333333 0 0 1-21.333333 21.333333h-42.666667V85.333333H256v42.666667h-42.666667a21.333333 21.333333 0 0 1-21.333333-21.333333V42.666667a21.333333 21.333333 0 0 1 21.333333-21.333334h597.333334a21.333333 21.333333 0 0 1 21.333333 21.333334z" fill="#D6E0FB" p-id="2471"></path><path d="M768 256v85.333333L512 554.666667 256 341.333333v-85.333333l256 213.333333z" fill="#7655FF" p-id="2472"></path><path d="M768 170.666667v85.333333L512 469.333333 256 256V170.666667l256 213.333333z" fill="#A166F5" p-id="2473"></path><path d="M768 128v42.666667L512 384 256 170.666667V85.333333l256 213.333334L768 85.333333z" fill="#A166F5" p-id="2474"></path><path d="M768 85.333333L512 298.666667 256 85.333333z" fill="#A166F5" p-id="2475"></path><path d="M512 554.666667l-21.333333-17.770667V661.333333a197.674667 197.674667 0 0 1 21.333333 0 197.674667 197.674667 0 0 1 21.333333 0v-124.437333z" fill="#FFA233" p-id="2476"></path><path d="M704 746.666667h-128l-0.576-1.152L512 832z" fill="#FFB337" p-id="2477"></path><path d="M575.424 745.514667L512 618.666667v213.333333z" fill="#FFCA46" p-id="2478"></path><path d="M654.058667 1001.365333l1.941333 1.301334-47.808-159.338667L512 832z" fill="#FFB337" p-id="2479"></path><path d="M608.192 843.328L608 842.666667 704 746.666667l-192 85.333333z" fill="#FF8D1F" p-id="2480"></path><path d="M512 618.666667l-63.424 126.848L512 832z" fill="#FFB337" p-id="2481"></path><path d="M369.941333 1001.365333L512 906.666667V832z" fill="#FFA233" p-id="2482"></path><path d="M512 832v74.666667l142.058667 94.698666zM320 746.666667l96 96-0.192 0.661333L512 832z" fill="#FF8D1F" p-id="2483"></path><path d="M448.576 745.514667L448 746.666667h-128l192 85.333333z" fill="#FFCA46" p-id="2484"></path><path d="M415.808 843.328L368 1002.666667l1.941333-1.301334L512 832z" fill="#FF711F" p-id="2485"></path><path d="M768 42.666667H234.666667a21.333333 21.333333 0 0 0-21.333334 21.333333v64h42.666667V85.333333h512v42.666667h21.333333V64a21.333333 21.333333 0 0 0-21.333333-21.333333z" fill="#AEB4E4" p-id="2486"></path><path d="M768 64H256a21.333333 21.333333 0 0 0-21.333333 21.333333v256a21.333333 21.333333 0 0 0 7.68 16.384l256 213.333334a21.333333 21.333333 0 0 0 27.306666 0l256-213.333334A21.333333 21.333333 0 0 0 789.333333 341.333333V85.333333a21.333333 21.333333 0 0 0-21.333333-21.333333z m0 64v213.333333L512 554.666667 256 341.333333V85.333333h512z" fill="#FFA233" p-id="2487"></path><path d="M512 441.6l-242.346667-201.984a20.992 20.992 0 0 0-13.653333-4.672V283.733333l242.346667 201.941334a21.333333 21.333333 0 0 0 27.306666 0L768 283.733333v-48.789333a20.821333 20.821333 0 0 0-13.653333 4.672z" fill="#FFA233" p-id="2488"></path><path d="M512 405.333333a21.184 21.184 0 0 0 13.653333-4.949333L768 198.4V149.610667a20.949333 20.949333 0 0 0-13.653333 4.672L512 356.266667 269.653333 154.282667a20.970667 20.970667 0 0 0-13.653333-4.650667V198.4l242.346667 201.941333A21.184 21.184 0 0 0 512 405.333333z" fill="#FFCA46" p-id="2489"></path><path d="M512 320a21.184 21.184 0 0 0 13.653333-4.949333L768 113.066667V85.333333h-33.322667L512 270.933333 289.322667 85.333333H256v27.733334l242.346667 201.941333A21.184 21.184 0 0 0 512 320z" fill="#FFF86A" p-id="2490"></path><path d="M377.216 117.333333c0 5.888 2.986667 10.666667 6.656 10.666667h200c3.690667 0 6.677333-4.778667 6.677333-10.666667s-2.986667-10.666667-6.677333-10.666666h-200c-3.669333 0-6.656 4.778667-6.656 10.666666zM611.882667 117.333333a10.666667 10.666667 0 0 0 10.666666 10.666667h21.333334a10.666667 10.666667 0 1 0 0-21.333333h-21.333334a10.666667 10.666667 0 0 0-10.666666 10.666666z" fill="#C29AFF" p-id="2491"></path><path d="M343.427235 134.361419a24.490667 17.6 45 1 0 24.890158-24.890159 24.490667 17.6 45 1 0-24.890158 24.890159Z" fill="#EAF6FF" p-id="2492"></path><path d="M386.881395 160.176592a12.245333 8.810667 45 1 0 12.460165-12.460164 12.245333 8.810667 45 1 0-12.460165 12.460164Z" fill="#EAF6FF" p-id="2493"></path></svg>